<mxfile host="65bd71144e">
    <diagram id="0xAgNzB_sNhx3lZTbn35" name="Front">
        <mxGraphModel dx="1028" dy="424" grid="1" gridSize="10" guides="1" tooltips="1" connect="1" arrows="1" fold="1" page="1" pageScale="1" pageWidth="850" pageHeight="1100" math="0" shadow="0">
            <root>
                <mxCell id="0"/>
                <mxCell id="1" parent="0"/>
                <mxCell id="2" value="&lt;font style=&quot;font-size: 48px;&quot;&gt;Bookshelf&lt;/font&gt;" style="text;html=1;align=center;verticalAlign=middle;resizable=0;points=[];autosize=1;strokeColor=none;fillColor=none;" parent="1" vertex="1">
                    <mxGeometry x="310" y="80" width="230" height="70" as="geometry"/>
                </mxCell>
                <mxCell id="Hnzboa-m79hkI0IA9eRg-3" value="" style="whiteSpace=wrap;html=1;fontSize=18;" parent="1" vertex="1">
                    <mxGeometry x="150" y="250" width="160" height="220" as="geometry"/>
                </mxCell>
                <mxCell id="Hnzboa-m79hkI0IA9eRg-4" value="This is an example of a piece of&amp;nbsp;&lt;br&gt;media that would be on the site,&lt;br&gt;along with the review posted by&lt;br&gt;the user who put it in their collection." style="text;html=1;align=center;verticalAlign=middle;resizable=0;points=[];autosize=1;strokeColor=none;fillColor=none;fontSize=18;" parent="1" vertex="1">
                    <mxGeometry x="370" y="280" width="310" height="100" as="geometry"/>
                </mxCell>
                <mxCell id="Hnzboa-m79hkI0IA9eRg-5" value="" style="whiteSpace=wrap;html=1;fontSize=18;" parent="1" vertex="1">
                    <mxGeometry x="40" y="550" width="780" height="480" as="geometry"/>
                </mxCell>
                <mxCell id="Hnzboa-m79hkI0IA9eRg-6" value="Register" style="whiteSpace=wrap;html=1;fontSize=18;" parent="1" vertex="1">
                    <mxGeometry x="40" y="510" width="120" height="40" as="geometry"/>
                </mxCell>
                <mxCell id="Hnzboa-m79hkI0IA9eRg-7" value="Login" style="whiteSpace=wrap;html=1;fontSize=18;" parent="1" vertex="1">
                    <mxGeometry x="160" y="510" width="120" height="40" as="geometry"/>
                </mxCell>
                <mxCell id="Hnzboa-m79hkI0IA9eRg-8" value="Contact" style="whiteSpace=wrap;html=1;fontSize=18;" parent="1" vertex="1">
                    <mxGeometry x="280" y="510" width="120" height="40" as="geometry"/>
                </mxCell>
                <mxCell id="Hnzboa-m79hkI0IA9eRg-9" value="" style="whiteSpace=wrap;html=1;fontSize=18;" parent="1" vertex="1">
                    <mxGeometry x="40" y="1120" width="780" height="480" as="geometry"/>
                </mxCell>
                <mxCell id="Hnzboa-m79hkI0IA9eRg-10" value="Register" style="whiteSpace=wrap;html=1;fontSize=18;" parent="1" vertex="1">
                    <mxGeometry x="40" y="1080" width="120" height="40" as="geometry"/>
                </mxCell>
                <mxCell id="Hnzboa-m79hkI0IA9eRg-11" value="Login" style="whiteSpace=wrap;html=1;fontSize=18;" parent="1" vertex="1">
                    <mxGeometry x="160" y="1080" width="120" height="40" as="geometry"/>
                </mxCell>
                <mxCell id="Hnzboa-m79hkI0IA9eRg-12" value="Contact" style="whiteSpace=wrap;html=1;fontSize=18;" parent="1" vertex="1">
                    <mxGeometry x="280" y="1080" width="120" height="40" as="geometry"/>
                </mxCell>
                <mxCell id="Hnzboa-m79hkI0IA9eRg-13" value="" style="whiteSpace=wrap;html=1;fontSize=18;" parent="1" vertex="1">
                    <mxGeometry x="40" y="1690" width="780" height="480" as="geometry"/>
                </mxCell>
                <mxCell id="Hnzboa-m79hkI0IA9eRg-14" value="Register" style="whiteSpace=wrap;html=1;fontSize=18;" parent="1" vertex="1">
                    <mxGeometry x="40" y="1650" width="120" height="40" as="geometry"/>
                </mxCell>
                <mxCell id="Hnzboa-m79hkI0IA9eRg-15" value="Login" style="whiteSpace=wrap;html=1;fontSize=18;" parent="1" vertex="1">
                    <mxGeometry x="160" y="1650" width="120" height="40" as="geometry"/>
                </mxCell>
                <mxCell id="Hnzboa-m79hkI0IA9eRg-16" value="Contact" style="whiteSpace=wrap;html=1;fontSize=18;" parent="1" vertex="1">
                    <mxGeometry x="280" y="1650" width="120" height="40" as="geometry"/>
                </mxCell>
                <mxCell id="Hnzboa-m79hkI0IA9eRg-17" value="This is the register tab." style="text;html=1;align=center;verticalAlign=middle;resizable=0;points=[];autosize=1;strokeColor=none;fillColor=none;fontSize=18;" parent="1" vertex="1">
                    <mxGeometry x="310" y="560" width="210" height="40" as="geometry"/>
                </mxCell>
                <mxCell id="Hnzboa-m79hkI0IA9eRg-18" value="Email" style="whiteSpace=wrap;html=1;fontSize=18;" parent="1" vertex="1">
                    <mxGeometry x="425" y="740" width="130" height="40" as="geometry"/>
                </mxCell>
                <mxCell id="Hnzboa-m79hkI0IA9eRg-19" value="Username" style="whiteSpace=wrap;html=1;fontSize=18;" parent="1" vertex="1">
                    <mxGeometry x="230" y="740" width="130" height="40" as="geometry"/>
                </mxCell>
                <mxCell id="Hnzboa-m79hkI0IA9eRg-20" value="Last Name" style="whiteSpace=wrap;html=1;fontSize=18;" parent="1" vertex="1">
                    <mxGeometry x="425" y="660" width="130" height="40" as="geometry"/>
                </mxCell>
                <mxCell id="Hnzboa-m79hkI0IA9eRg-21" value="First Name" style="whiteSpace=wrap;html=1;fontSize=18;" parent="1" vertex="1">
                    <mxGeometry x="230" y="660" width="130" height="40" as="geometry"/>
                </mxCell>
                <mxCell id="Hnzboa-m79hkI0IA9eRg-22" value="Password" style="whiteSpace=wrap;html=1;fontSize=18;" parent="1" vertex="1">
                    <mxGeometry x="230" y="820" width="130" height="40" as="geometry"/>
                </mxCell>
                <mxCell id="Hnzboa-m79hkI0IA9eRg-23" value="Retype-Password" style="whiteSpace=wrap;html=1;fontSize=18;" parent="1" vertex="1">
                    <mxGeometry x="425" y="820" width="130" height="40" as="geometry"/>
                </mxCell>
                <mxCell id="Hnzboa-m79hkI0IA9eRg-24" value="Register" style="whiteSpace=wrap;html=1;fontSize=18;" parent="1" vertex="1">
                    <mxGeometry x="330" y="900" width="120" height="60" as="geometry"/>
                </mxCell>
                <mxCell id="Hnzboa-m79hkI0IA9eRg-25" value="This is the login tab" style="text;html=1;align=center;verticalAlign=middle;resizable=0;points=[];autosize=1;strokeColor=none;fillColor=none;fontSize=18;" parent="1" vertex="1">
                    <mxGeometry x="300" y="1140" width="180" height="40" as="geometry"/>
                </mxCell>
                <mxCell id="Hnzboa-m79hkI0IA9eRg-26" value="This is the contact tab" style="text;html=1;align=center;verticalAlign=middle;resizable=0;points=[];autosize=1;strokeColor=none;fillColor=none;fontSize=18;" parent="1" vertex="1">
                    <mxGeometry x="300" y="1710" width="200" height="40" as="geometry"/>
                </mxCell>
            </root>
        </mxGraphModel>
    </diagram>
    <diagram id="qTJgMGIuk7FkQoH5v_hD" name="User Home">
        <mxGraphModel dx="1028" dy="424" grid="1" gridSize="10" guides="1" tooltips="1" connect="1" arrows="1" fold="1" page="1" pageScale="1" pageWidth="850" pageHeight="1100" math="0" shadow="0">
            <root>
                <mxCell id="0"/>
                <mxCell id="1" parent="0"/>
                <mxCell id="o143iWbHMQLEZWKRlMxN-1" value="&lt;font style=&quot;font-size: 48px;&quot;&gt;Bookshelf&lt;/font&gt;" style="text;html=1;align=center;verticalAlign=middle;resizable=0;points=[];autosize=1;strokeColor=none;fillColor=none;" parent="1" vertex="1">
                    <mxGeometry x="310" y="40" width="230" height="70" as="geometry"/>
                </mxCell>
                <mxCell id="o143iWbHMQLEZWKRlMxN-2" value="Search bar" style="whiteSpace=wrap;html=1;" parent="1" vertex="1">
                    <mxGeometry x="195" y="160" width="400" height="30" as="geometry"/>
                </mxCell>
                <mxCell id="o143iWbHMQLEZWKRlMxN-3" value="S" style="whiteSpace=wrap;html=1;" parent="1" vertex="1">
                    <mxGeometry x="615" y="160" width="40" height="30" as="geometry"/>
                </mxCell>
                <mxCell id="o143iWbHMQLEZWKRlMxN-4" value="" style="whiteSpace=wrap;html=1;" parent="1" vertex="1">
                    <mxGeometry x="50" y="240" width="160" height="210" as="geometry"/>
                </mxCell>
                <mxCell id="o143iWbHMQLEZWKRlMxN-6" value="" style="whiteSpace=wrap;html=1;" parent="1" vertex="1">
                    <mxGeometry x="50" y="720" width="160" height="210" as="geometry"/>
                </mxCell>
                <mxCell id="o143iWbHMQLEZWKRlMxN-7" value="" style="whiteSpace=wrap;html=1;" parent="1" vertex="1">
                    <mxGeometry x="50" y="480" width="160" height="210" as="geometry"/>
                </mxCell>
                <mxCell id="o143iWbHMQLEZWKRlMxN-8" value="Review blurb about the top starred piece of media" style="rounded=1;whiteSpace=wrap;html=1;" parent="1" vertex="1">
                    <mxGeometry x="250" y="280" width="480" height="120" as="geometry"/>
                </mxCell>
                <mxCell id="o143iWbHMQLEZWKRlMxN-10" value="Review blurb about the top starred piece of media" style="rounded=1;whiteSpace=wrap;html=1;" parent="1" vertex="1">
                    <mxGeometry x="250" y="765" width="480" height="120" as="geometry"/>
                </mxCell>
                <mxCell id="o143iWbHMQLEZWKRlMxN-11" value="Review blurb about the top starred piece of media" style="rounded=1;whiteSpace=wrap;html=1;" parent="1" vertex="1">
                    <mxGeometry x="250" y="525" width="480" height="120" as="geometry"/>
                </mxCell>
                <mxCell id="o143iWbHMQLEZWKRlMxN-12" value="My&amp;nbsp;&lt;br&gt;Collection" style="rounded=1;whiteSpace=wrap;html=1;" parent="1" vertex="1">
                    <mxGeometry x="570" y="45" width="80" height="55" as="geometry"/>
                </mxCell>
                <mxCell id="o143iWbHMQLEZWKRlMxN-13" value="Logout" style="rounded=1;whiteSpace=wrap;html=1;" parent="1" vertex="1">
                    <mxGeometry x="670" y="45" width="80" height="55" as="geometry"/>
                </mxCell>
            </root>
        </mxGraphModel>
    </diagram>
    <diagram id="Gl2BRGJ183U7IQBZEimP" name="User Collection Page">
        <mxGraphModel dx="1027" dy="424" grid="1" gridSize="10" guides="1" tooltips="1" connect="1" arrows="1" fold="1" page="1" pageScale="1" pageWidth="850" pageHeight="1100" math="0" shadow="0">
            <root>
                <mxCell id="0"/>
                <mxCell id="1" parent="0"/>
                <mxCell id="uoK-7LydAvcVkYXNqq8R-4" value="&lt;font style=&quot;font-size: 48px;&quot;&gt;Bookshelf&lt;/font&gt;" style="text;html=1;align=center;verticalAlign=middle;resizable=0;points=[];autosize=1;strokeColor=none;fillColor=none;" vertex="1" parent="1">
                    <mxGeometry x="290" y="50" width="230" height="70" as="geometry"/>
                </mxCell>
                <mxCell id="uoK-7LydAvcVkYXNqq8R-5" value="My&amp;nbsp;&lt;br&gt;Collection" style="rounded=1;whiteSpace=wrap;html=1;" vertex="1" parent="1">
                    <mxGeometry x="540" y="57.5" width="80" height="55" as="geometry"/>
                </mxCell>
                <mxCell id="uoK-7LydAvcVkYXNqq8R-6" value="Logout" style="rounded=1;whiteSpace=wrap;html=1;" vertex="1" parent="1">
                    <mxGeometry x="640" y="57.5" width="80" height="55" as="geometry"/>
                </mxCell>
                <mxCell id="uoK-7LydAvcVkYXNqq8R-7" value="&lt;font style=&quot;font-size: 24px;&quot;&gt;Your Collection, username&lt;/font&gt;" style="text;html=1;align=center;verticalAlign=middle;resizable=0;points=[];autosize=1;strokeColor=none;fillColor=none;" vertex="1" parent="1">
                    <mxGeometry x="20" y="150" width="300" height="40" as="geometry"/>
                </mxCell>
                <mxCell id="LpHoDHGF5rTLu8Xwo5mP-1" value="Search your collection" style="whiteSpace=wrap;html=1;" vertex="1" parent="1">
                    <mxGeometry x="230" y="210" width="400" height="30" as="geometry"/>
                </mxCell>
                <mxCell id="LpHoDHGF5rTLu8Xwo5mP-2" value="S" style="whiteSpace=wrap;html=1;" vertex="1" parent="1">
                    <mxGeometry x="650" y="210" width="40" height="30" as="geometry"/>
                </mxCell>
                <mxCell id="LpHoDHGF5rTLu8Xwo5mP-3" value="" style="whiteSpace=wrap;html=1;" vertex="1" parent="1">
                    <mxGeometry x="85" y="290" width="160" height="210" as="geometry"/>
                </mxCell>
                <mxCell id="LpHoDHGF5rTLu8Xwo5mP-4" value="" style="whiteSpace=wrap;html=1;" vertex="1" parent="1">
                    <mxGeometry x="85" y="770" width="160" height="210" as="geometry"/>
                </mxCell>
                <mxCell id="LpHoDHGF5rTLu8Xwo5mP-5" value="" style="whiteSpace=wrap;html=1;" vertex="1" parent="1">
                    <mxGeometry x="85" y="530" width="160" height="210" as="geometry"/>
                </mxCell>
                <mxCell id="LpHoDHGF5rTLu8Xwo5mP-6" value="Review blurb about your top starred piece of media" style="rounded=1;whiteSpace=wrap;html=1;" vertex="1" parent="1">
                    <mxGeometry x="285" y="330" width="480" height="120" as="geometry"/>
                </mxCell>
                <mxCell id="LpHoDHGF5rTLu8Xwo5mP-7" value="Review blurb about your top starred piece of media" style="rounded=1;whiteSpace=wrap;html=1;" vertex="1" parent="1">
                    <mxGeometry x="285" y="815" width="480" height="120" as="geometry"/>
                </mxCell>
                <mxCell id="LpHoDHGF5rTLu8Xwo5mP-8" value="Review blurb about your top starred piece of media" style="rounded=1;whiteSpace=wrap;html=1;" vertex="1" parent="1">
                    <mxGeometry x="285" y="575" width="480" height="120" as="geometry"/>
                </mxCell>
            </root>
        </mxGraphModel>
    </diagram>
</mxfile>